<svg width="408" height="874" viewBox="0 0 408 874" fill="none" xmlns="http://www.w3.org/2000/svg">
<g clip-path="url(#clip0_5_45)">
<g filter="url(#filter0_i_5_45)">
<g filter="url(#filter1_bd_5_45)">
<path d="M52.4 870.5C25.4 870.5 3.5 848.6 3.5 821.6V52.4C3.5 25.4 25.4 3.5 52.4 3.5H355.1C382.1 3.5 404 25.4 404 52.4V821.6C404 848.6 382.1 870.5 355.1 870.5H52.4Z" fill="url(#paint0_linear_5_45)" fill-opacity="0.3" shape-rendering="crispEdges"/>
<path d="M1 821.6C1 849.981 24.0193 873 52.4 873H355.1C383.481 873 406.5 849.981 406.5 821.6V52.4C406.5 24.0193 383.481 1 355.1 1H52.4C24.0193 1 1 24.0193 1 52.4V821.6Z" stroke="black" stroke-width="5" shape-rendering="crispEdges"/>
</g>
<path d="M355.1 6.5C380.419 6.5 401 27.0807 401 52.4V821.6C401 846.919 380.419 867.5 355.1 867.5H52.4C27.0807 867.5 6.5 846.919 6.5 821.6V52.4C6.5 27.0807 27.0807 6.5 52.4 6.5H355.1ZM407 821.6L407 52.4092C407 52.4063 407 52.4035 407 52.4006C407.1 23.7083 383.769 0.5 355.1 0.5H52.4C23.7193 0.5 0.5 23.7193 0.5 52.4V821.6C0.5 850.281 23.7193 873.5 52.4 873.5H355.1C383.781 873.5 407 850.281 407 821.6Z" stroke="black" stroke-width="5"/>
<path d="M285.6 3L283.4 12.3L282.3 16.9C282.3 29.7 269.1 40.1 252.9 40.1H154.7C138.4 40.1 125.3 29.7 125.3 16.9L124.2 12.3L122 3H285.6Z" fill="black"/>
<path d="M63.0545 21.2511V33.6069H61.5583V22.8197H61.4859L58.4693 24.8227V23.3023L61.5583 21.2511H63.0545ZM70.6382 33.7759C69.7292 33.7759 68.9549 33.5285 68.3154 33.0338C67.6759 32.535 67.1872 31.8131 66.8494 30.8679C66.5115 29.9187 66.3426 28.7724 66.3426 27.429C66.3426 26.0937 66.5115 24.9534 66.8494 24.0082C67.1912 23.059 67.6819 22.335 68.3214 21.8363C68.965 21.3335 69.7372 21.0822 70.6382 21.0822C71.5391 21.0822 72.3093 21.3335 72.9489 21.8363C73.5924 22.335 74.0831 23.059 74.4209 24.0082C74.7628 24.9534 74.9338 26.0937 74.9338 27.429C74.9338 28.7724 74.7648 29.9187 74.427 30.8679C74.0891 31.8131 73.6004 32.535 72.9609 33.0338C72.3214 33.5285 71.5472 33.7759 70.6382 33.7759ZM70.6382 32.4486C71.5391 32.4486 72.239 32.0142 72.7377 31.1454C73.2364 30.2766 73.4858 29.0378 73.4858 27.429C73.4858 26.3591 73.3712 25.4481 73.1419 24.696C72.9167 23.9439 72.5909 23.3707 72.1645 22.9766C71.7422 22.5824 71.2334 22.3853 70.6382 22.3853C69.7453 22.3853 69.0474 22.8257 68.5447 23.7066C68.0419 24.5834 67.7905 25.8242 67.7905 27.429C67.7905 28.4989 67.9031 29.4079 68.1284 30.156C68.3536 30.9041 68.6774 31.4732 69.0997 31.8634C69.5261 32.2535 70.0389 32.4486 70.6382 32.4486ZM78.2882 32.0263C77.9905 32.0263 77.7351 31.9197 77.522 31.7065C77.3088 31.4933 77.2022 31.2379 77.2022 30.9403C77.2022 30.6427 77.3088 30.3873 77.522 30.1741C77.7351 29.9609 77.9905 29.8543 78.2882 29.8543C78.5858 29.8543 78.8412 29.9609 79.0544 30.1741C79.2676 30.3873 79.3741 30.6427 79.3741 30.9403C79.3741 31.1374 79.3239 31.3184 79.2233 31.4833C79.1268 31.6482 78.9961 31.7809 78.8312 31.8815C78.6703 31.978 78.4893 32.0263 78.2882 32.0263ZM78.2882 25.7759C77.9905 25.7759 77.7351 25.6693 77.522 25.4562C77.3088 25.243 77.2022 24.9876 77.2022 24.69C77.2022 24.3923 77.3088 24.1369 77.522 23.9238C77.7351 23.7106 77.9905 23.604 78.2882 23.604C78.5858 23.604 78.8412 23.7106 79.0544 23.9238C79.2676 24.1369 79.3741 24.3923 79.3741 24.69C79.3741 24.887 79.3239 25.068 79.2233 25.2329C79.1268 25.3979 78.9961 25.5306 78.8312 25.6311C78.6703 25.7277 78.4893 25.7759 78.2882 25.7759ZM85.9352 33.7759C85.0262 33.7759 84.2519 33.5285 83.6124 33.0338C82.9729 32.535 82.4842 31.8131 82.1464 30.8679C81.8085 29.9187 81.6396 28.7724 81.6396 27.429C81.6396 26.0937 81.8085 24.9534 82.1464 24.0082C82.4882 23.059 82.9789 22.335 83.6185 21.8363C84.262 21.3335 85.0342 21.0822 85.9352 21.0822C86.8361 21.0822 87.6064 21.3335 88.2459 21.8363C88.8894 22.335 89.3801 23.059 89.7179 24.0082C90.0598 24.9534 90.2308 26.0937 90.2308 27.429C90.2308 28.7724 90.0618 29.9187 89.724 30.8679C89.3861 31.8131 88.8974 32.535 88.2579 33.0338C87.6184 33.5285 86.8442 33.7759 85.9352 33.7759ZM85.9352 32.4486C86.8361 32.4486 87.536 32.0142 88.0347 31.1454C88.5334 30.2766 88.7828 29.0378 88.7828 27.429C88.7828 26.3591 88.6682 25.4481 88.4389 24.696C88.2137 23.9439 87.8879 23.3707 87.4616 22.9766C87.0392 22.5824 86.5304 22.3853 85.9352 22.3853C85.0423 22.3853 84.3444 22.8257 83.8417 23.7066C83.3389 24.5834 83.0875 25.8242 83.0875 27.429C83.0875 28.4989 83.2002 29.4079 83.4254 30.156C83.6506 30.9041 83.9744 31.4732 84.3967 31.8634C84.8231 32.2535 85.3359 32.4486 85.9352 32.4486ZM96.5535 33.7759C95.6445 33.7759 94.8702 33.5285 94.2307 33.0338C93.5912 32.535 93.1025 31.8131 92.7647 30.8679C92.4268 29.9187 92.2579 28.7724 92.2579 27.429C92.2579 26.0937 92.4268 24.9534 92.7647 24.0082C93.1066 23.059 93.5973 22.335 94.2368 21.8363C94.8803 21.3335 95.6525 21.0822 96.5535 21.0822C97.4544 21.0822 98.2247 21.3335 98.8642 21.8363C99.5077 22.335 99.9984 23.059 100.336 24.0082C100.678 24.9534 100.849 26.0937 100.849 27.429C100.849 28.7724 100.68 29.9187 100.342 30.8679C100.004 31.8131 99.5158 32.535 98.8762 33.0338C98.2367 33.5285 97.4625 33.7759 96.5535 33.7759ZM96.5535 32.4486C97.4544 32.4486 98.1543 32.0142 98.653 31.1454C99.1518 30.2766 99.4011 29.0378 99.4011 27.429C99.4011 26.3591 99.2865 25.4481 99.0572 24.696C98.832 23.9439 98.5062 23.3707 98.0799 22.9766C97.6576 22.5824 97.1488 22.3853 96.5535 22.3853C95.6606 22.3853 94.9628 22.8257 94.46 23.7066C93.9572 24.5834 93.7058 25.8242 93.7058 27.429C93.7058 28.4989 93.8185 29.4079 94.0437 30.156C94.2689 30.9041 94.5927 31.4732 95.015 31.8634C95.4414 32.2535 95.9542 32.4486 96.5535 32.4486Z" fill="#7E7E7E"/>
</g>
<path d="M194.1 27.8C198.85 27.8 202.7 23.9496 202.7 19.2C202.7 14.4503 198.85 10.6 194.1 10.6C189.35 10.6 185.5 14.4503 185.5 19.2C185.5 23.9496 189.35 27.8 194.1 27.8Z" fill="url(#paint1_linear_5_45)"/>
<path d="M200.5 24.4C197.6 27.9 192.5 28.4 189 25.6C185.5 22.7 185 17.6 187.9 14.1C190.8 10.6 195.9 10.1 199.4 12.9C202.9 15.7 203.3 20.9 200.5 24.4Z" fill="url(#paint2_linear_5_45)"/>
<path d="M194.341 26.1889C197.981 26.0043 200.774 22.7247 200.578 18.8638C200.382 15.0028 197.272 12.0225 193.632 12.2071C189.992 12.3917 187.199 15.6713 187.395 19.5323C187.591 23.3933 190.701 26.3735 194.341 26.1889Z" fill="#1B1464"/>
<path d="M197.5 14C198.3 15.6 197.1 17.9 194.8 19.1C192.4 20.3 189.9 20 189 18.4C188.2 16.8 189.4 14.5 191.7 13.3C194 12.1 196.6 12.4 197.5 14Z" fill="url(#paint3_linear_5_45)"/>
<path d="M218.3 24.2C221.061 24.2 223.3 21.9614 223.3 19.2C223.3 16.4385 221.061 14.2 218.3 14.2C215.539 14.2 213.3 16.4385 213.3 19.2C213.3 21.9614 215.539 24.2 218.3 24.2Z" fill="url(#paint4_linear_5_45)"/>
<path d="M222.1 22.3C220.4 24.4 217.4 24.7 215.3 23C213.2 21.3 212.9 18.3 214.6 16.2C216.3 14.1 219.3 13.8 221.4 15.5C223.4 17.2 223.7 20.2 222.1 22.3Z" fill="url(#paint5_linear_5_45)"/>
<path d="M218.391 23.2948C220.542 23.1857 222.193 21.264 222.079 19.0026C221.964 16.7412 220.127 14.9964 217.976 15.1055C215.825 15.2145 214.174 17.1362 214.289 19.3976C214.403 21.6591 216.24 23.4039 218.391 23.2948Z" fill="#1B1464"/>
<path d="M220.3 16.2C220.8 17.1 220.1 18.5 218.7 19.2C217.3 19.9 215.8 19.7 215.3 18.8C214.8 17.9 215.5 16.5 216.9 15.8C218.3 15 219.8 15.2 220.3 16.2Z" fill="url(#paint6_linear_5_45)"/>
<path d="M309.7 22.9C311.1 22.9 312 24.3 311.3 25.4L311.1 25.7L304.1 36.8C303.4 37.9 301.6 37.9 300.9 36.8L294 25.5C293.3 24.4 294.2 23 295.6 23C303.1 22.9 307.4 22.9 309.7 22.9Z" fill="#7E7E7E"/>
<path d="M311.6 24.9C311.3 25.4 310.7 25.8 310 25.8H295.2C294.5 25.8 293.9 25.5 293.6 24.9C293 23.9 293.6 22.7 294.7 22.4C296.8 21.9 299.6 21.5 303 21.5C306 21.5 308.5 21.9 310.5 22.4C311.7 22.7 312.3 23.9 311.6 24.9Z" fill="#AFAAAA"/>
<path d="M358 23.5H349V38.5H358V23.5Z" fill="#AFAAAA"/>
<path d="M355.5 21.5H351.5V23.5H355.5V21.5Z" fill="#AFAAAA"/>
<path d="M358 28H349V38.5H358V28Z" fill="#7E7E7E"/>
<path d="M338.2 39.3H316.5L338.2 23.5" fill="#7E7E7E"/>
</g>
<defs>
<filter id="filter0_i_5_45" x="-2" y="-2" width="415.5" height="882" filterUnits="userSpaceOnUse" color-interpolation-filters="sRGB">
<feFlood flood-opacity="0" result="BackgroundImageFix"/>
<feBlend mode="normal" in="SourceGraphic" in2="BackgroundImageFix" result="shape"/>
<feColorMatrix in="SourceAlpha" type="matrix" values="0 0 0 0 0 0 0 0 0 0 0 0 0 0 0 0 0 0 127 0" result="hardAlpha"/>
<feOffset dx="8" dy="8"/>
<feGaussianBlur stdDeviation="2"/>
<feComposite in2="hardAlpha" operator="arithmetic" k2="-1" k3="1"/>
<feColorMatrix type="matrix" values="0 0 0 0 0.466667 0 0 0 0 0.466667 0 0 0 0 0.466667 0 0 0 0.75 0"/>
<feBlend mode="normal" in2="shape" result="effect1_innerShadow_5_45"/>
</filter>
<filter id="filter1_bd_5_45" x="-101.5" y="-101.5" width="610.5" height="1077" filterUnits="userSpaceOnUse" color-interpolation-filters="sRGB">
<feFlood flood-opacity="0" result="BackgroundImageFix"/>
<feGaussianBlur in="BackgroundImageFix" stdDeviation="50"/>
<feComposite in2="SourceAlpha" operator="in" result="effect1_backgroundBlur_5_45"/>
<feColorMatrix in="SourceAlpha" type="matrix" values="0 0 0 0 0 0 0 0 0 0 0 0 0 0 0 0 0 0 127 0" result="hardAlpha"/>
<feOffset dy="4"/>
<feGaussianBlur stdDeviation="12"/>
<feComposite in2="hardAlpha" operator="out"/>
<feColorMatrix type="matrix" values="0 0 0 0 0 0 0 0 0 0 0 0 0 0 0 0 0 0 0.25 0"/>
<feBlend mode="normal" in2="effect1_backgroundBlur_5_45" result="effect2_dropShadow_5_45"/>
<feBlend mode="normal" in="SourceGraphic" in2="effect2_dropShadow_5_45" result="shape"/>
</filter>
<linearGradient id="paint0_linear_5_45" x1="203.75" y1="3.5" x2="203.75" y2="870.5" gradientUnits="userSpaceOnUse">
<stop stop-color="white" stop-opacity="0.1"/>
<stop offset="0.520833"/>
</linearGradient>
<linearGradient id="paint1_linear_5_45" x1="198.381" y1="11.7392" x2="189.82" y2="26.5663" gradientUnits="userSpaceOnUse">
<stop offset="0.0371287" stop-color="#777777"/>
<stop offset="0.1009" stop-color="#7E7E7E"/>
<stop offset="0.1915" stop-color="#909090"/>
<stop offset="0.2981" stop-color="#AFAFAF"/>
<stop offset="0.4159" stop-color="#D9D9D9"/>
<stop offset="0.5074" stop-color="white"/>
<stop offset="0.5727" stop-color="#CCCCCC" stop-opacity="0.9735"/>
<stop offset="0.6599" stop-color="#8F8F8F" stop-opacity="0.9381"/>
<stop offset="0.7436" stop-color="#5C5C5C" stop-opacity="0.9041"/>
<stop offset="0.8217" stop-color="#343434" stop-opacity="0.8724"/>
<stop offset="0.8928" stop-color="#171717" stop-opacity="0.8435"/>
<stop offset="0.9545" stop-color="#060606" stop-opacity="0.8185"/>
<stop offset="1" stop-opacity="0.8"/>
</linearGradient>
<linearGradient id="paint2_linear_5_45" x1="201.779" y1="16.2988" x2="186.42" y2="22.091" gradientUnits="userSpaceOnUse">
<stop offset="0.0371287" stop-color="#777777"/>
<stop offset="0.1009" stop-color="#7E7E7E"/>
<stop offset="0.1915" stop-color="#909090"/>
<stop offset="0.2981" stop-color="#AFAFAF"/>
<stop offset="0.4159" stop-color="#D9D9D9"/>
<stop offset="0.5074" stop-color="white"/>
<stop offset="0.5508" stop-color="#DEDEDE" stop-opacity="0.956"/>
<stop offset="0.6452" stop-color="#9D9D9D" stop-opacity="0.8602"/>
<stop offset="0.735" stop-color="#666666" stop-opacity="0.769"/>
<stop offset="0.8179" stop-color="#3C3C3C" stop-opacity="0.6849"/>
<stop offset="0.8922" stop-color="#1D1D1D" stop-opacity="0.6094"/>
<stop offset="0.9554" stop-color="#0B0B0B" stop-opacity="0.5452"/>
<stop offset="1" stop-opacity="0.6"/>
</linearGradient>
<linearGradient id="paint3_linear_5_45" x1="188.91" y1="18.4813" x2="197.437" y2="14.0354" gradientUnits="userSpaceOnUse">
<stop stop-color="white" stop-opacity="0.9"/>
<stop offset="0.0618812" stop-color="#CCE0F4"/>
<stop offset="0.1366" stop-color="#C3DAF0" stop-opacity="0.8997"/>
<stop offset="0.2609" stop-color="#A9C9E4" stop-opacity="0.7329"/>
<stop offset="0.4194" stop-color="#80AED1" stop-opacity="0.5201"/>
<stop offset="0.6061" stop-color="#4689B7" stop-opacity="0.2696"/>
</linearGradient>
<linearGradient id="paint4_linear_5_45" x1="220.824" y1="14.8351" x2="215.779" y2="23.5745" gradientUnits="userSpaceOnUse">
<stop offset="0.0371287" stop-color="#777777"/>
<stop offset="0.1009" stop-color="#7E7E7E"/>
<stop offset="0.1915" stop-color="#909090"/>
<stop offset="0.2981" stop-color="#AFAFAF"/>
<stop offset="0.4159" stop-color="#D9D9D9"/>
<stop offset="0.5074" stop-color="white"/>
<stop offset="0.5727" stop-color="#CCCCCC" stop-opacity="0.9735"/>
<stop offset="0.6599" stop-color="#8F8F8F" stop-opacity="0.9381"/>
<stop offset="0.7436" stop-color="#5C5C5C" stop-opacity="0.9041"/>
<stop offset="0.8217" stop-color="#343434" stop-opacity="0.8724"/>
<stop offset="0.8928" stop-color="#171717" stop-opacity="0.8435"/>
<stop offset="0.9545" stop-color="#060606" stop-opacity="0.8185"/>
<stop offset="1" stop-opacity="0.8"/>
</linearGradient>
<linearGradient id="paint5_linear_5_45" x1="222.819" y1="17.5377" x2="213.766" y2="20.9518" gradientUnits="userSpaceOnUse">
<stop offset="0.0371287" stop-color="#777777"/>
<stop offset="0.1009" stop-color="#7E7E7E"/>
<stop offset="0.1915" stop-color="#909090"/>
<stop offset="0.2981" stop-color="#AFAFAF"/>
<stop offset="0.4159" stop-color="#D9D9D9"/>
<stop offset="0.5074" stop-color="white"/>
<stop offset="0.5508" stop-color="#DEDEDE" stop-opacity="0.956"/>
<stop offset="0.6452" stop-color="#9D9D9D" stop-opacity="0.8602"/>
<stop offset="0.735" stop-color="#666666" stop-opacity="0.769"/>
<stop offset="0.8179" stop-color="#3C3C3C" stop-opacity="0.6849"/>
<stop offset="0.8922" stop-color="#1D1D1D" stop-opacity="0.6094"/>
<stop offset="0.9554" stop-color="#0B0B0B" stop-opacity="0.5452"/>
<stop offset="1" stop-opacity="0.6"/>
</linearGradient>
<linearGradient id="paint6_linear_5_45" x1="215.234" y1="18.8157" x2="220.261" y2="16.1951" gradientUnits="userSpaceOnUse">
<stop stop-color="white" stop-opacity="0.9"/>
<stop offset="0.0618812" stop-color="#CCE0F4"/>
<stop offset="0.1366" stop-color="#C3DAF0" stop-opacity="0.8997"/>
<stop offset="0.2609" stop-color="#A9C9E4" stop-opacity="0.7329"/>
<stop offset="0.4194" stop-color="#80AED1" stop-opacity="0.5201"/>
<stop offset="0.6061" stop-color="#4689B7" stop-opacity="0.2696"/>
</linearGradient>
<clipPath id="clip0_5_45">
<rect width="408" height="874" rx="40" fill="white"/>
</clipPath>
</defs>
</svg>
